<?xml version="1.0" encoding="utf-8"?>
<!-- Generator: Adobe Illustrator 23.0.2, SVG Export Plug-In . SVG Version: 6.00 Build 0)  -->
<svg version="1.1" id="Layer_1" xmlns="http://www.w3.org/2000/svg" xmlns:xlink="http://www.w3.org/1999/xlink" x="0px" y="0px"
	 viewBox="0 0 97.8 91" style="enable-background:new 0 0 97.8 91;" xml:space="preserve">
<style type="text/css">
	.st0{fill:#FFFFFF;stroke:#1C125F;stroke-linecap:round;stroke-linejoin:round;}
</style>
<title>airplane</title>
<g>
	<g id="PLANES">
		<path class="st0" d="M47.5,1.4l-0.8,1c-2.1,2.7-3.2,6.1-3.2,9.6v19.2l-8.2,4.3v-1.9c0-0.6-0.4-1-1-1c0,0-0.1,0-0.1,0h-3.8
			c-0.6,0-1.1,0.4-1.1,1v5.2l-14.6,7.6L3.9,52.1c-2.1,1.1-3.5,3.3-3.5,5.7l34.9-8.2l8.1,0.2v25.4l-9.7,6.5c-1.7,1.1-2.7,2.9-2.7,5
			l16.3-4.1l1,7.6c0.7,1,1.3,0,1.3,0l1-7.6l16.2,4.1c0-2-1-3.9-2.7-5l-9.7-6.5c0,0,0.1-1.8,0.1-3.2V49.8l8.1-0.2l34.8,8.2
			c0-2.4-1.4-4.6-3.5-5.7l-10.8-5.7l-14.6-7.6v-5.2c0-0.6-0.4-1-1-1c0,0-0.1,0-0.1,0h-3.9c-0.6,0-1.1,0.4-1.1,1v1.9l-8.2-4.3V12
			c0-3.4-1.1-6.8-3.2-9.6l-0.8-1C50,0.2,48.1,0.2,47.5,1.4"/>
	</g>
</g>
</svg>
